<svg preserveAspectRatio="none" width="100%" height="100%" overflow="visible" style="display: block;" viewBox="0 0 22.9582 22.9582" fill="none" xmlns="http://www.w3.org/2000/svg">
<g id="SVG">
<path id="Vector" d="M10.4931 5.49283V3.82616M10.4931 5.49283C9.57324 5.49283 8.82643 6.23963 8.82643 7.15949C8.82643 8.07935 9.57324 8.82616 10.4931 8.82616M10.4931 5.49283C11.413 5.49283 12.1598 6.23963 12.1598 7.15949C12.1598 8.07935 11.413 8.82616 10.4931 8.82616M5.4931 15.4928C6.41296 15.4928 7.15976 14.746 7.15976 13.8262C7.15976 12.9063 6.41296 12.1595 5.4931 12.1595M5.4931 15.4928C4.57324 15.4928 3.82643 14.746 3.82643 13.8262C3.82643 12.9063 4.57324 12.1595 5.4931 12.1595M5.4931 15.4928V17.1595M5.4931 12.1595V3.82616M10.4931 8.82616V17.1595M15.4931 15.4928C16.413 15.4928 17.1598 14.746 17.1598 13.8262C17.1598 12.9063 16.413 12.1595 15.4931 12.1595M15.4931 15.4928C14.5732 15.4928 13.8264 14.746 13.8264 13.8262C13.8264 12.9063 14.5732 12.1595 15.4931 12.1595M15.4931 15.4928V17.1595M15.4931 12.1595V3.82616" stroke="var(--stroke-0, #9CA3AF)" stroke-width="1.91318" stroke-linecap="round" stroke-linejoin="round"/>
</g>
</svg>
