<svg preserveAspectRatio="none" width="100%" height="100%" overflow="visible" style="display: block;" viewBox="0 0 30.1307 29.6995" fill="none" xmlns="http://www.w3.org/2000/svg">
<path id="Icon" d="M8.10545 3.26733C10.145 2.06155 12.5244 1.36958 15.0653 1.36958C22.6293 1.36958 28.7611 7.50138 28.7611 15.0653C28.7611 15.1107 28.7609 15.156 28.7604 15.2013M3.26115 8.1159C2.05919 10.1531 1.36958 12.5287 1.36958 15.0653C1.36958 21.447 5.73432 26.8092 11.6414 28.3296M26.9911 21.8044C25.1827 24.9978 22.1287 27.3929 18.4893 28.3296M17.9268 7.35979C17.0357 7.02877 16.0716 6.84788 15.0653 6.84788C10.527 6.84788 6.84788 10.527 6.84788 15.0653C6.84788 16.0771 7.03073 17.0462 7.3652 17.9413M22.7693 12.1997C23.1013 13.092 23.2828 14.0575 23.2828 15.0653C23.2828 19.6037 19.6037 23.2828 15.0653 23.2828C14.0657 23.2828 13.1078 23.1043 12.2217 22.7775M15.0653 12.3262V17.8045" stroke="var(--stroke-0, #FFACDE)" stroke-width="2.73915" stroke-linecap="round" stroke-linejoin="round"/>
</svg>
