<svg preserveAspectRatio="none" width="100%" height="100%" overflow="visible" style="display: block;" viewBox="0 0 17.3943 12.51" fill="none" xmlns="http://www.w3.org/2000/svg">
<path id="Wifi" fill-rule="evenodd" clip-rule="evenodd" d="M8.69765 2.50263C11.2214 2.50274 13.6487 3.43842 15.4778 5.11627C15.6155 5.24581 15.8357 5.24417 15.9713 5.11261L17.2879 3.83051C17.3566 3.76379 17.3949 3.6734 17.3943 3.57935C17.3938 3.4853 17.3544 3.39535 17.2849 3.3294C12.4841 -1.1098 4.9104 -1.1098 0.109649 3.3294C0.0401066 3.3953 0.000649197 3.48523 7.93931e-06 3.57927C-0.000633318 3.67332 0.0375944 3.76374 0.106232 3.83051L1.42323 5.11261C1.55879 5.24437 1.77912 5.24601 1.91677 5.11627C3.74608 3.43831 6.17363 2.50263 8.69765 2.50263ZM8.69424 6.78512C10.0716 6.78503 11.3997 7.30432 12.4207 8.24207C12.5588 8.37516 12.7763 8.37227 12.9109 8.23556L14.2172 6.89681C14.286 6.82659 14.3241 6.73133 14.3231 6.63234C14.3221 6.53335 14.2821 6.43889 14.2119 6.37011C11.1029 3.43665 6.28822 3.43665 3.17923 6.37011C3.109 6.43889 3.06893 6.5334 3.06801 6.63242C3.06709 6.73144 3.10539 6.82669 3.17433 6.89681L4.48021 8.23556C4.61482 8.37227 4.83234 8.37516 4.97043 8.24207C5.9907 7.30494 7.31783 6.7857 8.69424 6.78512ZM11.2559 9.61985C11.2578 9.72675 11.2202 9.82982 11.1519 9.90471L8.94318 12.3956C8.87843 12.4688 8.79016 12.51 8.69805 12.51C8.60594 12.51 8.51767 12.4688 8.45292 12.3956L6.2438 9.90471C6.17556 9.82976 6.13802 9.72666 6.14004 9.61976C6.14207 9.51286 6.18348 9.41162 6.25449 9.33996C7.66508 8.00671 9.73102 8.00671 11.1416 9.33996C11.2126 9.41168 11.2539 9.51295 11.2559 9.61985Z" fill="var(--fill-0, black)"/>
</svg>
