<svg preserveAspectRatio="none" width="100%" height="100%" overflow="visible" style="display: block;" viewBox="0 0 12.4693 12.4693" fill="none" xmlns="http://www.w3.org/2000/svg">
<g id="SVG" clip-path="url(#clip0_348_6710)">
<path id="Vector" d="M14.3724 7.70569C14.3724 4.02369 11.3877 1.03903 7.70574 1.03903C4.02374 1.03903 1.03908 4.02369 1.03908 7.70569C1.03908 11.033 3.47708 13.791 6.66441 14.291V9.63303H4.97108V7.70569H6.66441V6.23703C6.66441 4.56636 7.65908 3.64369 9.18241 3.64369C9.91174 3.64369 10.6744 3.77369 10.6744 3.77369V5.41369H9.83441C9.00574 5.41369 8.74774 5.92769 8.74774 6.45503V7.70569H10.5964L10.3011 9.63236H8.74774V14.291C11.9344 13.791 14.3724 11.033 14.3724 7.70569V7.70569" fill="var(--fill-0, #374151)"/>
</g>
<defs>
<clipPath id="clip0_348_6710">
<rect width="12.4693" height="12.4693" fill="white"/>
</clipPath>
</defs>
</svg>
