<svg preserveAspectRatio="none" width="100%" height="100%" overflow="visible" style="display: block;" viewBox="0 0 15.5866 15.5866" fill="none" xmlns="http://www.w3.org/2000/svg">
<g id="SVG" clip-path="url(#clip0_348_6713)">
<path id="Vector" d="M11.9483 5.28053C12.8688 5.28053 13.615 6.02672 13.615 6.9472M16.9483 6.9472C16.9488 8.53088 16.1989 10.0212 14.9269 10.9646C13.6549 11.908 12.0112 12.1931 10.4958 11.733L8.61496 13.6139H6.9483V15.2805H5.28163V16.9472H2.78163C2.32139 16.9472 1.9483 16.5741 1.9483 16.1139V13.9589C1.94834 13.7379 2.03617 13.5259 2.19246 13.3697L7.16246 8.3997C6.59444 6.52189 7.17707 4.4854 8.65232 3.19216C10.1276 1.89892 12.2228 1.58793 14.0101 2.39691C15.7974 3.20589 16.9464 4.98536 16.9483 6.9472L11.9483 5.28053" stroke="var(--stroke-0, #6B7280)" stroke-width="1.29888" stroke-linecap="round" stroke-linejoin="round"/>
</g>
<defs>
<clipPath id="clip0_348_6713">
<rect width="15.5866" height="15.5866" fill="white"/>
</clipPath>
</defs>
</svg>
