<svg preserveAspectRatio="none" width="100%" height="100%" overflow="visible" style="display: block;" viewBox="0 0 19.483 12.4066" fill="none" xmlns="http://www.w3.org/2000/svg">
<path id="Cellular Connection" fill-rule="evenodd" clip-rule="evenodd" d="M19.483 1.16312C19.483 0.520747 18.9984 0 18.4006 0H17.3182C16.7204 0 16.2358 0.520747 16.2358 1.16312V11.2435C16.2358 11.8859 16.7204 12.4066 17.3182 12.4066H18.4006C18.9984 12.4066 19.483 11.8859 19.483 11.2435V1.16312ZM11.9393 2.48133H13.0217C13.6195 2.48133 14.1041 3.01457 14.1041 3.67236V11.2156C14.1041 11.8734 13.6195 12.4066 13.0217 12.4066H11.9393C11.3415 12.4066 10.8569 11.8734 10.8569 11.2156V3.67236C10.8569 3.01457 11.3415 2.48133 11.9393 2.48133ZM7.5437 5.16942H6.46131C5.86352 5.16942 5.37892 5.70946 5.37892 6.37562V11.2004C5.37892 11.8666 5.86352 12.4066 6.46131 12.4066H7.5437C8.14148 12.4066 8.62609 11.8666 8.62609 11.2004V6.37562C8.62609 5.70946 8.14148 5.16942 7.5437 5.16942ZM2.16478 7.65076H1.08239C0.484602 7.65076 0 8.18308 0 8.83973V11.2177C0 11.8743 0.484602 12.4066 1.08239 12.4066H2.16478C2.76257 12.4066 3.24717 11.8743 3.24717 11.2177V8.83973C3.24717 8.18308 2.76257 7.65076 2.16478 7.65076Z" fill="var(--fill-0, black)"/>
</svg>
