<svg preserveAspectRatio="none" width="100%" height="100%" overflow="visible" style="display: block;" viewBox="0 0 39.9526 35.3866" fill="none" xmlns="http://www.w3.org/2000/svg">
<path id="Icon" d="M8.43444 35.3866C7.32464 35.3866 6.38132 34.9995 5.60446 34.2255C4.82761 33.4514 4.43918 32.5114 4.43918 31.4056C4.43918 30.6315 4.66114 29.9035 5.10505 29.2216C5.54897 28.5397 6.14086 28.0512 6.88072 27.7564L15.5371 24.3283V19.352C13.5395 21.6743 11.2182 23.4528 8.57316 24.6877C5.92815 25.9225 3.07043 26.5399 0 26.5399V22.1166C2.51553 22.1166 4.79986 21.6006 6.85298 20.5685C8.9061 19.5363 10.765 18.0619 12.4297 16.1451L15.4261 12.6065C15.8701 12.0904 16.388 11.7034 16.9799 11.4453C17.5717 11.1873 18.2006 11.0583 18.8665 11.0583H21.0861C21.752 11.0583 22.3809 11.1873 22.9727 11.4453C23.5646 11.7034 24.0825 12.0904 24.5265 12.6065L27.5229 16.1451C29.1876 18.0619 31.0465 19.5363 33.0996 20.5685C35.1527 21.6006 37.4371 22.1166 39.9526 22.1166V26.5399C36.8822 26.5399 34.0244 25.9225 31.3794 24.6877C28.7344 23.4528 26.4131 21.6743 24.4155 19.352V24.3283L33.0719 27.7564C33.8117 28.0512 34.4036 28.5397 34.8475 29.2216C35.2915 29.9035 35.5134 30.6315 35.5134 31.4056C35.5134 32.5114 35.125 33.4514 34.3481 34.2255C33.5713 34.9995 32.628 35.3866 31.5182 35.3866H15.5371V34.2808C15.5371 33.3224 15.8516 32.5299 16.4804 31.9032C17.1093 31.2766 17.9047 30.9633 18.8665 30.9633H25.5253C25.8582 30.9633 26.1264 30.8619 26.3299 30.6592C26.5333 30.4564 26.6351 30.1892 26.6351 29.8574C26.6351 29.5257 26.5333 29.2584 26.3299 29.0557C26.1264 28.853 25.8582 28.7516 25.5253 28.7516H18.8665C17.3128 28.7516 15.9995 29.2861 14.9267 30.3551C13.8539 31.424 13.3175 32.7326 13.3175 34.2808V35.3866H8.43444ZM19.9763 8.84665C18.7555 8.84665 17.7105 8.41353 16.8411 7.5473C15.9718 6.68106 15.5371 5.63974 15.5371 4.42332C15.5371 3.20691 15.9718 2.16559 16.8411 1.29935C17.7105 0.433117 18.7555 0 19.9763 0C21.1971 0 22.2421 0.433117 23.1115 1.29935C23.9808 2.16559 24.4155 3.20691 24.4155 4.42332C24.4155 5.63974 23.9808 6.68106 23.1115 7.5473C22.2421 8.41353 21.1971 8.84665 19.9763 8.84665Z" fill="var(--fill-0, #54599E)"/>
</svg>
