<svg preserveAspectRatio="none" width="100%" height="100%" overflow="visible" style="display: block;" viewBox="0 0 21.9424 22.1363" fill="none" xmlns="http://www.w3.org/2000/svg">
<path id="Icon" d="M1.0443 12.5054C1.39143 14.8905 2.58566 17.0709 4.40852 18.6476C6.23138 20.2244 8.56101 21.0922 10.9712 21.0922C13.3814 21.0922 15.711 20.2244 17.5339 18.6476C19.3567 17.0709 20.551 14.8905 20.8981 12.5054M10.9726 1.04417C9.83274 1.04417 8.73953 1.49699 7.9335 2.30302C7.12748 3.10904 6.67465 4.20225 6.67465 5.34215V11.0728C6.67465 12.2127 7.12748 13.3059 7.9335 14.1119C8.73953 14.9179 9.83274 15.3708 10.9726 15.3708C12.1125 15.3708 13.2057 14.9179 14.0118 14.1119C14.8178 13.3059 15.2706 12.2127 15.2706 11.0728V5.34215C15.2706 4.20225 14.8178 3.10904 14.0118 2.30302C13.2057 1.49699 12.1125 1.04417 10.9726 1.04417Z" stroke="var(--stroke-0, #616AFF)" stroke-width="2.08833" stroke-linecap="round" stroke-linejoin="round"/>
</svg>
