<svg preserveAspectRatio="none" width="100%" height="100%" overflow="visible" style="display: block;" viewBox="0 0 23.1201 23.1201" fill="none" xmlns="http://www.w3.org/2000/svg">
<g id="SVG">
<path id="Vector" d="M8.89001 11.8902L10.89 13.8902L14.89 9.89019M20.89 11.8902C20.89 16.8574 16.8572 20.8902 11.89 20.8902C6.92278 20.8902 2.89001 16.8574 2.89001 11.8902C2.89001 6.92296 6.92278 2.89019 11.89 2.89019C16.8572 2.89019 20.89 6.92296 20.89 11.8902H8.89001" stroke="var(--stroke-0, #96B500)" stroke-width="1.92668" stroke-linecap="round" stroke-linejoin="round"/>
<path id="Vector_2" d="M8.67004 11.6702C8.67004 13.326 10.0143 14.6702 11.67 14.6702C13.3258 14.6702 14.67 13.326 14.67 11.6702C14.67 10.0145 13.3258 8.67022 11.67 8.67022C10.0143 8.67022 8.67004 10.0145 8.67004 11.6702V11.6702" stroke="var(--stroke-0, #96B500)" stroke-width="1.44501"/>
</g>
</svg>
