<svg preserveAspectRatio="none" width="100%" height="100%" overflow="visible" style="display: block;" viewBox="0 0 22.605 22.2815" fill="none" xmlns="http://www.w3.org/2000/svg">
<path id="Icon" d="M6.08097 2.45125C7.61112 1.54664 9.39618 1.0275 11.3025 1.0275C16.9772 1.0275 21.5775 5.62777 21.5775 11.3025C21.5775 11.3365 21.5773 11.3706 21.577 11.4045M2.44662 6.08881C1.54487 7.61722 1.0275 9.39944 1.0275 11.3025C1.0275 16.0902 4.30207 20.1132 8.73375 21.2538M20.2496 16.3584C18.8929 18.7541 16.6017 20.551 13.8713 21.2538M13.4493 5.52155C12.7807 5.27321 12.0575 5.1375 11.3025 5.1375C7.89766 5.1375 5.1375 7.89766 5.1375 11.3025C5.1375 12.0616 5.27468 12.7886 5.52561 13.4601M17.0823 9.15263C17.3314 9.82201 17.4675 10.5464 17.4675 11.3025C17.4675 14.7073 14.7073 17.4675 11.3025 17.4675C10.5526 17.4675 9.83391 17.3336 9.16914 17.0884M11.3025 9.2475V13.3575" stroke="var(--stroke-0, #515151)" stroke-width="2.055" stroke-linecap="round" stroke-linejoin="round"/>
</svg>
