<svg preserveAspectRatio="none" width="100%" height="100%" overflow="visible" style="display: block;" viewBox="0 0 23.1201 23.1201" fill="none" xmlns="http://www.w3.org/2000/svg">
<g id="SVG">
<path id="Vector" d="M10.5967 11.5965C10.5967 12.1484 11.0448 12.5965 11.5967 12.5965C12.1486 12.5965 12.5967 12.1484 12.5967 11.5965C12.5967 11.0446 12.1486 10.5965 11.5967 10.5965C11.0448 10.5965 10.5967 11.0446 10.5967 11.5965V11.5965" stroke="var(--stroke-0, #9CA3AF)" stroke-width="1.92668"/>
<path id="Vector_2" d="M15.4134 11.5965C15.4134 12.1484 15.8615 12.5965 16.4134 12.5965C16.9653 12.5965 17.4134 12.1484 17.4134 11.5965C17.4134 11.0446 16.9653 10.5965 16.4134 10.5965C15.8615 10.5965 15.4134 11.0446 15.4134 11.5965V11.5965" stroke="var(--stroke-0, #9CA3AF)" stroke-width="1.92668"/>
<path id="Vector_3" d="M5.78002 11.5965C5.78002 12.1484 6.22811 12.5965 6.78002 12.5965C7.33194 12.5965 7.78002 12.1484 7.78002 11.5965C7.78002 11.0446 7.33194 10.5965 6.78002 10.5965C6.22811 10.5965 5.78002 11.0446 5.78002 11.5965V11.5965" stroke="var(--stroke-0, #9CA3AF)" stroke-width="1.92668"/>
</g>
</svg>
